<?xml version="1.0" encoding="UTF-8" standalone="no"?>
<!-- Created with Inkscape (http://www.inkscape.org/) -->

<svg
   width="938.32037"
   height="790.73724"
   viewBox="0 0 248.26393 209.2159"
   version="1.1"
   id="svg1922"
   sodipodi:docname="Inside_Out_(2015) Alt.svg"
   inkscape:version="1.3.2 (091e20e, 2023-11-25, custom)"
   xmlns:inkscape="http://www.inkscape.org/namespaces/inkscape"
   xmlns:sodipodi="http://sodipodi.sourceforge.net/DTD/sodipodi-0.dtd"
   xmlns="http://www.w3.org/2000/svg"
   xmlns:svg="http://www.w3.org/2000/svg"
   xmlns:rdf="http://www.w3.org/1999/02/22-rdf-syntax-ns#"
   xmlns:cc="http://creativecommons.org/ns#"
   xmlns:dc="http://purl.org/dc/elements/1.1/">
  <defs
     id="defs1916">
    <style
       id="style2467">.cls-1{fill:#32a6d1}.cls-2{fill:#ef539e}.cls-3{fill:#ef3e23}.cls-4{fill:#2598c9}.cls-5{fill:#ac9f33}.cls-6{fill:#b7ac39}.cls-11,.cls-12,.cls-7{fill:none}.cls-7{stroke:#010101;stroke-miterlimit:10;stroke-width:.22px}.cls-8{fill:#f99e1c}.cls-9{fill:#f58020}.cls-10{fill:#007eb9}.cls-12{stroke:#000;stroke-linecap:round;stroke-linejoin:round;stroke-width:0}.cls-13{fill:#fff}</style>
  </defs>
  <sodipodi:namedview
     id="base"
     pagecolor="#ffffff"
     bordercolor="#666666"
     borderopacity="1.0"
     inkscape:pageopacity="0.0"
     inkscape:pageshadow="2"
     inkscape:zoom="0.70710678"
     inkscape:cx="306.88434"
     inkscape:cy="433.45646"
     inkscape:document-units="px"
     inkscape:current-layer="layer1"
     showgrid="false"
     units="px"
     inkscape:window-width="1920"
     inkscape:window-height="1094"
     inkscape:window-x="-11"
     inkscape:window-y="-11"
     inkscape:window-maximized="1"
     inkscape:showpageshadow="2"
     inkscape:pagecheckerboard="0"
     inkscape:deskcolor="#d1d1d1" />
  <metadata
     id="metadata1919">
    <rdf:RDF>
      <cc:Work
         rdf:about="">
        <dc:format>image/svg+xml</dc:format>
        <dc:type
           rdf:resource="http://purl.org/dc/dcmitype/StillImage" />
      </cc:Work>
    </rdf:RDF>
  </metadata>
  <g
     inkscape:label="Layer 1"
     inkscape:groupmode="layer"
     id="layer1"
     transform="translate(-25.008232,-94.724118)">
    <path
       d="m 48.099515,127.26301 c 3.011587,-0.23721 4.037106,-0.25843 6.352322,-0.25989 1.710833,6.3e-4 3.503961,-0.0764 5.421951,-0.0907 3.236326,7.08276 6.546213,15.88304 8.591719,20.81879 2.607019,6.28971 5.622333,13.42728 9.460791,20.34349 0.05802,-5.15333 -0.607539,-12.07416 -0.999077,-17.93244 -0.393435,-5.85894 -0.764856,-20.73522 -1.385442,-27.7913 2.305539,-0.37042 7.051921,-0.30958 9.899969,-0.32741 1.863993,-0.0119 4.661972,0.0591 6.615304,-0.13004 0.415581,9.76275 0.712888,20.15811 0.843707,26.90547 0.122685,6.21527 0.664373,13.76037 0.673168,22.37184 0.0087,8.00141 0.503252,16.60349 0.70775,20.68558 0.203839,4.08399 0.203189,10.7877 0.578054,14.47213 -3.014501,0.55076 -7.457874,0.047 -12.608607,0.0792 -2.881399,-6.37462 -5.787074,-11.50152 -8.635989,-17.88397 -3.242858,-7.25931 -6.757234,-16.33912 -8.262476,-19.75614 -1.764592,-4.00898 -5.947834,-13.91472 -5.947834,-13.91472 0.223063,7.63607 0.475737,23.98863 0.343389,31.09496 -0.135481,7.10311 -0.05421,12.52176 -0.04697,14.11844 -2.527703,0.41633 -5.367917,0.65582 -6.433245,0.66318 -1.066564,0.005 -2.307801,0.0168 -3.550188,0.0199 -0.397297,-6.56808 -0.458112,-16.51338 -0.674306,-22.19157 -0.214215,-5.68387 0.446754,-13.67951 0.02834,-23.80034 -0.419078,-10.11893 -1.13345,-24.65128 -0.97233,-27.49439"
       style="fill:#000000;fill-opacity:1;fill-rule:nonzero;stroke:none;stroke-width:1.60584"
       id="path4168"
       inkscape:connector-curvature="0" />
    <path
       d="m 127.36362,150.18166 c 3.68319,-0.37742 10.21191,-0.15502 14.91397,-0.62612 -0.20034,-3.72781 -0.39635,-13.67553 -1.08469,-17.13117 -0.85659,-4.30918 -3.16008,-8.41866 -6.54425,-9.99251 -3.38284,-1.57762 -7.12329,-3.3308 -14.93508,-2.92663 -7.8137,0.40353 -14.143,3.55152 -16.64941,7.03178 -2.42418,3.36011 -4.397734,6.77513 -4.499637,19.20801 -0.09745,12.43231 5.408457,20.07798 12.565097,21.05469 5.38298,0.73526 9.06672,1.36341 11.91132,2.4114 2.84905,1.04742 7.66059,3.50303 7.35307,11.31992 -0.30308,7.81632 -5.27157,8.5581 -9.18049,8.58271 -3.90638,0.0234 -8.94942,-0.25979 -9.27923,-7.22311 -0.27567,-5.78818 -0.22033,-6.74665 -0.22033,-6.74665 -3.81805,0.11153 -5.41603,0.12256 -11.00992,0.1577 0.2093,5.14865 0.57597,12.96439 2.9466,16.94209 2.69555,4.50959 8.57074,7.22509 19.58136,7.15691 11.01061,-0.0682 18.35008,-5.17697 18.93298,-11.12953 0.40327,-4.1 0.55497,-18.3605 -1.29867,-23.21243 -2.03218,-5.31584 -9.37212,-7.44465 -15.95445,-9.35639 -6.58167,-1.91363 -11.82501,-2.45786 -13.00703,-7.02277 -1.00711,-3.87697 -0.9658,-12.24781 0.26017,-14.9199 1.22787,-2.67145 6.11213,-2.52433 7.17745,-2.53169 1.06534,-0.007 6.17388,0.3624 6.94652,3.68585 0.62878,2.6867 0.28647,2.83957 1.07465,15.26784"
       style="fill:#000000;fill-opacity:1;fill-rule:nonzero;stroke:none;stroke-width:1.60584"
       id="path4172"
       inkscape:connector-curvature="0" />
    <path
       d="m 147.4412,123.23927 c 2.61882,-0.0615 5.14298,-0.21128 7.6355,-0.22751 0.97515,-0.005 3.28555,0.0686 5.77315,0.23135 0.0427,6.92711 0.63585,16.46688 0.70384,27.30101 0.0687,10.83224 0.56057,18.7766 0.5881,23.03726 0.0281,4.26511 0.12365,19.35989 0.31729,22.02048 -2.66295,0.37136 -6.92599,0.57661 -8.34494,0.58623 -1.41895,0.01 -3.73196,-0.15394 -5.14884,0.0328 0.0401,-7.90363 -0.0141,-16.25035 -0.0515,-22.28926 -0.04,-6.03769 -0.12958,-20.24618 -0.46115,-31.16573 -0.3573,-11.55979 -0.81092,-15.62236 -1.01144,-19.52665"
       style="fill:#000000;fill-opacity:1;fill-rule:nonzero;stroke:none;stroke-width:1.60584"
       id="path4176"
       inkscape:connector-curvature="0" />
    <path
       d="m 179.52073,183.59771 c 2.84331,0.3376 6.30737,0.49178 8.26052,0.12618 1.94812,-0.36948 9.58485,-0.59444 10.39721,-12.3208 0.81615,-11.72505 0.40948,-20.15837 0.028,-24.15331 -0.44448,-4.65029 -2.5136,-12.19166 -9.44936,-12.59408 -5.50472,-0.31855 -9.987,0.28436 -9.987,0.28436 0.0402,6.30558 0.22434,16.28743 0.42531,24.81703 0.18078,7.85516 0.29498,19.22188 0.32535,23.84062 m 6.99438,-59.89341 c 11.89686,-0.16553 18.0931,3.94135 22.7682,12.95348 4.27098,8.23163 4.64705,25.94499 3.29834,37.14237 -1.35249,11.19607 -7.86984,19.5839 -14.42719,21.93405 -6.55545,2.35081 -8.60012,1.91722 -13.92677,1.95401 -5.32912,0.0317 -10.65923,-0.33659 -14.83215,-0.17648 0.0304,-2.13196 -0.0682,-3.59463 -0.27699,-8.92167 -0.21328,-5.32645 -0.69861,-21.7983 -1.01512,-34.22598 -0.35086,-13.84887 -0.44708,-21.18995 -0.98801,-30.36082 3.63705,-0.20219 8.38798,-0.14827 19.39969,-0.29896"
       style="fill:#000000;fill-opacity:1;fill-rule:nonzero;stroke:none;stroke-width:1.60584"
       id="path4180"
       inkscape:connector-curvature="0" />
    <path
       d="m 69.329803,250.01432 c 0.185707,20.93953 3.973208,30.15058 8.534138,33.54556 3.486749,2.59156 7.475167,3.60213 15.217421,3.55633 7.741018,-0.0484 13.444928,-0.47877 18.235478,-5.76951 4.78609,-5.29018 4.99194,-16.1416 4.75325,-32.21085 -0.27905,-18.60844 -2.63994,-27.11863 -4.27671,-29.48045 -1.0426,-1.50448 -3.83887,-6.6953 -16.699281,-7.34569 -12.859178,-0.64783 -17.872247,3.85976 -21.417155,9.04653 -3.908209,5.72341 -4.486159,13.01677 -4.347141,28.65808 m 17.851925,-21.9721 c 1.369296,-1.71033 4.491156,-2.12382 7.998173,-2.00144 3.508267,0.12493 6.432919,0.69279 7.615659,2.87523 1.18016,2.18367 1.94847,7.87558 2.32388,21.31215 0.37541,13.43655 0.6562,19.88756 -1.60964,22.79905 -1.82149,2.34357 -3.939247,3.38941 -8.030955,3.26748 -4.092355,-0.12004 -7.160096,-1.85788 -8.202206,-4.9202 -1.042777,-3.06044 -2.050935,-11.94553 -2.263807,-21.29548 -0.245795,-10.83016 -0.292854,-18.95333 2.168896,-22.03679"
       style="fill:#000000;fill-opacity:1;fill-rule:nonzero;stroke:none;stroke-width:1.60584"
       id="path4184"
       inkscape:connector-curvature="0" />
    <path
       d="m 121.93052,205.71621 c 5.40716,0.25694 13.58687,0.20619 16.36254,0.18866 -0.37041,10.95779 0.56986,20.88625 0.76786,29.21076 0.19799,8.32453 0.10828,16.9442 0.43839,23.07653 0.33135,6.1349 0.50511,10.18928 3.72189,11.22447 4.00622,1.29515 12.78495,1.88029 14.35552,-2.92275 1.308,-4.01237 2.07803,-8.00591 1.7279,-17.77351 -0.38195,-10.66501 -0.37353,-20.803 -0.4146,-27.52122 -0.0448,-6.71955 -0.4463,-16.59003 -0.89583,-18.48527 3.64877,-0.46167 10.66149,-0.21313 10.66149,-0.21313 0.79123,9.48972 0.95808,24.09284 1.09012,34.02892 0.13809,10.52909 -0.25729,28.63272 -1.5412,33.31452 -1.28648,4.68304 -2.71469,9.95013 -10.29404,12.6288 -7.57935,2.67867 -20.4445,1.00426 -25.27834,-1.30185 -4.83507,-2.30866 -8.81046,-6.95784 -9.17312,-18.49612 -0.36589,-11.53515 -0.0119,-24.68582 -0.34507,-31.25496 -0.33184,-6.57293 -1.16526,-23.07672 -1.18351,-25.70385"
       style="fill:#000000;fill-opacity:1;fill-rule:nonzero;stroke:none;stroke-width:1.60584"
       id="path4188"
       inkscape:connector-curvature="0" />
    <path
       d="m 42.859947,190.71498 c 0.151682,-4.08559 0.155592,-10.70102 -0.04523,-14.25044 -0.198262,-3.55066 -0.636675,-16.69034 -0.681946,-23.61621 -0.04082,-6.92645 -0.644926,-18.02166 -0.947493,-37.91148 -0.118691,-7.89305 0.194227,-12.88111 0.09581,-18.964645 -1.957729,0.04305 -4.47754,0.05829 -6.748693,-0.05457 -2.691785,-0.131809 -4.534488,-0.193229 -9.524163,0.09056 0.306491,9.850175 0.879911,30.231785 1.418716,44.505325 0.639989,16.87004 0.891907,35.51366 1.212671,44.43781 0.322741,8.91848 1.024865,20.65999 1.024865,20.65999 3.059709,-0.41812 10.385649,-0.33046 14.247355,-0.62233 -0.05624,-1.73064 -0.203579,-10.18842 -0.05189,-14.27401"
       style="fill:#000000;fill-opacity:1;fill-rule:nonzero;stroke:none;stroke-width:1.60584"
       id="path4192"
       inkscape:connector-curvature="0" />
    <path
       d="m 272.58895,186.88005 c 0.30966,-2.17711 0.51996,-3.80643 0.68321,-7.04629 -1.00862,-0.009 -2.11623,-0.0206 -3.36157,-0.0335 -10.65718,-0.11057 -16.08461,1.19833 -23.71914,1.06909 -7.63834,-0.13057 -16.34152,-0.43215 -16.34152,-0.43215 -0.21185,-5.14743 -0.26965,-14.55816 0.2467,-17.04801 3.90542,-0.3808 11.00184,-1.31254 16.68316,-1.52552 5.68198,-0.21488 6.75062,-0.0425 9.05758,-0.23392 -0.18592,-1.24229 -0.0485,-7.63691 -0.0611,-9.59043 -3.54925,0.37731 -7.99422,-0.48193 -11.01051,-0.46316 -3.02074,0.0193 -7.81577,0.22636 -11.0128,0.42237 -0.19524,-3.01611 -0.40982,-9.05295 -0.62244,-14.3813 6.74836,-0.39616 18.10798,-1.35667 21.84136,-1.02369 -0.37551,-3.01724 -0.44416,-13.84948 -0.28542,-16.51488 -6.21719,-0.49439 -11.00729,0.24787 -18.46689,0.47075 -7.45579,0.2242 -13.58181,0.17604 -18.64006,0.65063 0.77431,10.47219 1.39325,24.49732 1.45577,34.26679 0.0613,9.76691 0.0789,19.62274 0.24872,25.34856 0.15673,5.33015 0.0592,9.58976 -0.0132,12.30012 6.57159,-0.0411 15.63463,0.78964 24.33253,0.20304 8.69856,-0.5885 18.5636,-2.10349 24.95474,-2.32223 1.12221,-0.0364 2.32817,-0.0692 3.57477,-0.10272 0.12174,-1.32007 0.2717,-2.70896 0.45608,-4.01359"
       style="fill:#000000;fill-opacity:1;fill-rule:nonzero;stroke:none;stroke-width:1.60584"
       id="path4196"
       inkscape:connector-curvature="0" />
    <path
       d="m 194.92276,303.94002 c 2.01777,-0.11779 4.8056,-0.23737 7.30305,-0.1945 2.31594,0.0392 4.01144,0.0472 7.60318,-0.23238 -0.17872,-9.86307 -0.1051,-27.45172 -0.42168,-32.02983 -0.48476,-7.00665 -0.17137,-50.3944 -0.0525,-54.9229 3.65061,-0.31437 13.72616,-0.66992 21.17836,-0.71895 -0.15821,-1.74914 0.0209,-7.70201 0.21637,-11.68734 -5.98569,0.33016 -10.37016,0.35922 -19.86166,0.8565 -9.48962,0.49795 -16.94175,0.40034 -22.78199,0.58136 -5.84344,0.18415 -10.95783,-0.22377 -13.29247,0.3767 0.0206,3.06583 0.4828,7.15263 0.34769,8.76137 -0.13701,1.60808 0.0381,5.98814 0.0381,5.98814 5.25979,0.40542 15.04335,-0.0943 18.70315,0.61478 0.22092,12.12232 0.5788,22.78321 1.09366,34.90374 0.51355,12.12433 -0.22168,32.71764 -0.15814,42.649 0.01,1.66336 0.0408,3.31304 0.0849,5.05431"
       style="fill:#000000;fill-opacity:1;fill-rule:nonzero;stroke:none;stroke-width:1.60584"
       id="path4200"
       inkscape:connector-curvature="0" />
    <path
       d="m 105.35189,104.61983 v 0 c 0,0 -0.25757,-2.77 -4.15856,-5.716243 -0.0252,-0.01937 -0.0496,-0.04077 -0.0748,-0.06005 -0.0142,-0.0081 -0.0297,-0.01881 -0.0426,-0.03017 -0.2734,-0.203693 -0.56466,-0.404933 -0.87362,-0.610301 -1.237136,-0.817666 -2.513837,-1.43017 -3.531847,-1.876083 -3.009861,-1.31809 -7.416395,-2.251078 -11.352542,-1.043516 -0.568348,0.203805 -0.773057,0.748925 -0.957641,1.260666 -0.01816,0.07648 -0.04608,0.21776 0.0067,0.304137 0.208382,0.225609 0.549007,0.248471 0.882085,0.262489 0.137829,0.0012 0.433609,-10e-7 0.633321,-0.03027 0.122822,-0.02944 0.235945,-0.07938 0.232038,-0.21465 -0.0014,-0.03023 -0.01019,-0.05035 -0.0226,-0.06939 -0.252861,-0.317614 -0.660184,-0.191674 -0.934837,-0.349052 -0.0071,-0.0088 -0.0099,-0.02049 -0.0066,-0.03002 0.01095,-0.02171 0.02584,-0.04003 0.04255,-0.05528 l -0.0015,-5.26e-4 c 0.09644,-0.08748 0.262095,-0.13616 0.404707,-0.167259 0.0052,-3.1e-4 0.05094,-0.01201 0.05606,-0.01447 0.02696,-0.0042 0.05412,-0.0089 0.0834,-0.01342 0.03127,-0.0044 0.0528,-0.0051 0.0528,-0.0051 3.182724,-0.502807 6.263333,0.0811 9.020826,1.09237 3.163851,1.290942 6.84595,3.229978 8.32851,6.681618 0.0363,0.0912 0.0774,0.19913 0.1138,0.3202 0.003,0.01 0.005,0.0208 0.008,0.0325 0.008,0.0218 0.0127,0.0426 0.0194,0.0663 0.0168,0.0674 0.0331,0.13685 0.0467,0.20758 0.003,0.0162 0.006,0.0318 0.01,0.0458 0.22888,1.21048 -0.0555,2.53981 -1.06063,3.36945 -2.17852,1.74524 -5.279765,1.89808 -8.024252,1.38659 l -0.07498,-3.89246 c 0.0019,-0.19489 0.0042,-0.64682 -0.0026,-0.85324 -0.0041,-0.0736 -0.0026,-0.0414 8.91e-4,-0.11242 0.360031,-0.008 0.465319,5e-4 0.587149,0.005 1.234614,0.0559 2.981803,0.28168 4.277779,0.92429 0.02078,0.0136 0.05223,0.0395 0.05358,0.0844 -6.57e-4,0.002 5.25e-4,0.003 5.25e-4,0.003 -4.62e-4,0.006 -0.0038,0.0156 -0.0049,0.0238 -0.01358,0.0781 -0.04759,0.15127 -0.08432,0.21296 v 0 c -9.86e-4,0.003 -0.002,0.006 -0.0041,0.007 -0.01597,0.0264 -0.03041,0.0532 -0.0473,0.0748 -0.101768,0.15161 -0.164604,0.20412 -0.186371,0.2178 -0.228568,0.19247 -0.566894,0.28508 -0.567002,0.57837 0.0018,0.0241 0.0084,0.0307 0.03359,0.0437 0.263777,0.11536 0.57294,0.16754 0.863008,0.17078 0.03963,0.002 0.194933,-0.004 0.356625,-0.0841 0.436141,-0.23921 0.941498,-0.62224 1.055838,-1.10318 0.12381,-0.43513 -0.0235,-0.80527 -0.21703,-1.14685 -0.12302,-0.20217 -0.307412,-0.36849 -0.40416,-0.44469 -1.068981,-0.81225 -2.369369,-1.1248 -3.716313,-1.23041 -0.803994,-0.0717 -1.416699,-0.064 -1.766705,-0.0477 -0.03362,-10e-4 -0.06789,-3.5e-4 -0.103995,-2.1e-4 l -0.08889,0.005 c -0.0067,-2.1e-4 -0.08131,0.008 -0.0877,0.008 l -0.05417,-2.21879 c -0.08008,-0.56352 -0.386064,-1.22909 -0.97495,-1.43629 -0.616247,1.12873 -0.629941,3.62785 -0.689691,3.82384 -0.07322,0.0149 -0.149076,0.0311 -0.220956,0.0485 -0.403439,0.0721 -0.845299,0.16899 -1.305966,0.29553 -0.384077,0.0958 -0.766427,0.20496 -1.143514,0.34784 -0.698201,0.27762 -1.394121,0.62192 -1.996071,1.20299 -0.04054,0.0432 -0.09336,0.10353 -0.136077,0.16517 -0.140056,0.22543 -0.235445,0.51741 -0.183287,0.79489 0.0057,0.0275 0.02783,0.10319 0.07052,0.18814 1.060707,1.81261 2.988244,3.17465 4.786315,4.01123 0.12918,0.64226 0.128843,1.33295 0.539093,1.79676 0.360516,0.10003 0.75867,0.0431 1.0275,-0.0269 0.356811,-0.14569 0.334243,-0.64243 0.366027,-0.98419 0.02851,0.004 0.02636,0.004 0.04368,0.009 3.127371,0.74261 6.56365,0.45775 9.07745,-1.38965 1.57105,-1.17884 2.34208,-2.91683 2.02402,-4.81729 m -15.002912,0.20404 c 1.120206,-0.17105 1.741491,-0.20338 1.999504,-0.22406 0.0018,1.38648 -0.101977,2.74043 -0.152529,4.14906 -1.529446,-0.55813 -3.134806,-1.37435 -4.187393,-2.84405 -0.01811,-0.0276 -0.02535,-0.0556 -0.03018,-0.072 -8.53e-4,-0.002 1.34e-4,-0.005 -10e-4,-0.007 0,0 -8.53e-4,-0.002 4.63e-4,-0.006 -0.04589,-0.27741 0.28127,-0.48444 0.500059,-0.55704 0.588049,-0.20545 1.230969,-0.33652 1.872227,-0.43841 m 25.905431,-1.86025 c -6.8e-4,-0.0322 -0.0156,-0.065 -0.0443,-0.0983 -0.0175,-0.0167 -0.044,-0.0324 -0.0679,-0.0428 -1.94714,-0.79914 -4.64126,-0.56413 -6.44981,0.42998 -0.54785,0.28533 -0.79427,0.81593 -0.83974,1.4165 -6.8e-4,0.0996 10e-4,0.35744 0.11362,0.57095 0.0913,0.15301 0.22081,0.2937 0.36767,0.37248 0.0221,0.01 0.0615,0.0246 0.10797,0.0376 0.59638,0.12466 1.22865,0.17066 1.86103,0.21021 0.31903,0.0238 0.54988,0.0384 0.54988,0.0384 1.19594,0.0998 1.76078,0.25395 1.76078,0.25395 l 0.007,2.2e-4 c 0.47878,0.13274 1.14264,0.24061 1.27316,0.8302 0.006,0.0257 10e-4,0.0408 -0.007,0.0654 -0.40158,0.64659 -1.60754,0.86855 -2.4168,1.00121 -0.53153,0.0615 -1.87588,0.28411 -2.53018,-0.25407 -0.0898,-0.0781 -0.11022,-0.16591 -0.11202,-0.21543 -8.5e-4,-0.0122 -4.5e-4,-0.0279 4.2e-4,-0.0403 l -8.5e-4,-0.002 c 0.006,-0.0913 0.0349,-0.18554 0.0959,-0.27055 0.0113,-0.0131 0.0387,-0.0503 0.0862,-0.0825 0.84707,-0.49146 1.92808,0.56091 2.79223,0.45373 0.87404,-0.0867 1.15232,-0.29377 1.23927,-0.48242 0.0723,-0.14062 0.04,-0.23689 0.04,-0.23689 -0.30638,-0.25547 -0.99812,-0.46032 -1.56241,-0.56113 -0.79958,-0.11487 -1.93749,-0.28361 -2.73807,0.19642 -0.0138,0.0104 -0.16636,0.10564 -0.26815,0.25732 -0.15342,0.22715 -0.26446,0.50306 -0.27726,0.79618 10e-4,0.0515 0.007,0.12776 0.0365,0.21889 0.4098,1.02056 1.47855,1.5649 2.4551,1.78807 1.32268,0.21191 2.75472,0.0304 3.73381,-0.84017 l -0.002,-5.2e-4 c 0.18818,-0.16828 0.28929,-0.318 0.33605,-0.39735 0.24714,-0.48996 0.3198,-1.27236 0.16349,-1.87944 -0.0473,-0.16948 -0.1204,-0.30124 -0.18145,-0.38838 -1.0162,-1.34226 -2.89148,-0.96224 -4.47765,-1.21708 -0.19707,-0.0262 -0.47572,-0.0744 -0.72227,-0.15378 -0.15336,-0.0416 -0.2433,-0.0826 -0.29185,-0.10799 -0.013,-0.007 -0.0264,-0.0155 -0.0384,-0.024 -0.003,-0.001 -0.006,-0.002 -0.006,-0.002 -0.0351,-0.0275 -0.0639,-0.0605 -0.0753,-0.10702 -0.006,-0.0275 0.009,-0.0414 0.0208,-0.05 1.3767,-0.55358 3.03196,-0.47879 4.56299,-0.65767 0.48662,-0.0729 0.99677,-0.0546 1.33248,-0.42659 0.0113,-0.0131 0.0277,-0.0307 0.0478,-0.0577 0,0 0.002,-10e-4 0.003,-0.005 0.002,5.3e-4 6.6e-4,-0.002 6.6e-4,-0.002 0.0323,-0.044 0.0693,-0.10766 0.0945,-0.18601 0.0154,-0.0393 0.0211,-0.0799 0.025,-0.10606 4.6e-4,-0.006 -10e-4,-0.011 -7.5e-4,-0.0173 0.002,-0.01 7.6e-4,-0.0168 0.001,-0.0186 l 6.5e-4,-0.002 c -8.5e-4,-0.002 -5.2e-4,-0.003 -5.2e-4,-0.003 m 5.54183,-0.84394 c -0.20555,-0.29476 -0.56574,-0.84742 -1.02626,-0.87389 -0.17892,0.0802 -0.18659,0.33462 -0.15469,0.48814 0.33487,1.68739 0.99557,3.22041 1.00125,5.0291 2.9e-4,0.0724 -0.002,0.19483 -0.0182,0.26572 -0.0249,0.0764 -0.0647,0.13681 -0.13342,0.14483 -1.01397,-1.36698 -1.70063,-2.90479 -2.94981,-4.15176 -0.0545,-0.051 -0.0929,-0.0749 -0.11437,-0.0866 -0.20001,-0.0909 -0.38564,0.0209 -0.52481,0.17645 -0.0388,0.0503 -0.11761,0.16098 -0.20275,0.35026 -0.39583,0.92279 -0.58019,1.94686 -0.72144,2.96894 -0.0787,0.51887 -0.30727,1.95052 0.0497,2.74437 0.15429,0.28328 0.43618,0.56636 0.77044,0.54036 0.22826,-0.0268 0.40724,-0.3088 0.48588,-0.54072 l 0.24971,-4.15348 0.10809,0.17792 c 0.84836,1.36033 1.28237,2.89731 2.61825,3.97466 0.18814,0.12503 0.43232,0.0953 0.64163,0.013 0.1321,-0.0497 0.31535,-0.13038 0.46699,-0.26675 0.45753,-0.36779 0.70036,-1.01016 0.76748,-1.5203 0.22534,-1.94716 -0.26009,-3.76987 -1.3134,-5.28021 m -11.00869,-4.307614 c -0.1118,-0.374774 -0.47145,-0.349104 -0.78732,-0.320979 -0.12414,0.02052 -0.24072,0.05646 -0.29999,0.07407 -1.08996,0.426014 -2.09902,1.40095 -2.73327,2.404389 0.74168,0.128544 1.48803,-4.42e-4 2.20502,-0.258767 0.22927,-0.102955 0.46234,-0.204581 0.68973,-0.35708 0.49109,-0.360373 1.05469,-0.874027 0.92585,-1.541675 m -2.9448,-0.485607 c -0.0503,-0.01433 -0.10528,-0.02141 -0.15397,-0.0281 l -0.002,0.0014 c -0.24596,-0.02614 -0.41988,0.02162 -0.50218,0.05043 -0.01,0.003 -0.0199,0.0083 -0.0294,0.01106 -0.0714,0.0282 -0.1545,0.06523 -0.20694,0.09373 -0.29425,0.167475 -0.57104,0.358029 -0.80333,0.591714 -0.1532,0.152828 -0.30421,0.342559 -0.41135,0.522048 -0.0136,0.02926 -0.0741,0.12725 -0.11335,0.264473 -0.0491,0.184845 -0.0755,0.375442 0.0632,0.496007 0.0245,-0.03616 0.0536,-0.06858 0.082,-0.101182 0.24971,-0.302018 1.05432,-1.227 2.07777,-1.901478 m 3.90468,0.768854 c -0.0301,0.15957 -0.0987,0.405602 -0.24385,0.661144 -0.45463,0.768416 -1.10489,1.353933 -1.81775,1.826233 -0.43674,0.28365 -0.84831,0.48892 -1.33346,0.64305 -0.69472,0.20656 -1.46366,0.0769 -2.10464,-0.12714 -0.10388,0.12741 -0.25776,0.66693 -0.59068,0.64026 -0.18093,7.4e-4 -0.28275,-0.0792 -0.39572,-0.31634 -0.0337,-0.0862 -0.0614,-0.15963 -0.0782,-0.22705 -0.0276,-0.1159 -0.0387,-0.23664 -0.0464,-0.33072 4e-4,-0.17203 0.007,-0.35033 0.008,-0.40748 -0.47297,-0.472912 -0.62143,-1.145263 -0.49179,-1.773905 0.005,-0.03421 0.0211,-0.09474 0.0462,-0.181578 0.0183,-0.05738 0.0388,-0.116241 0.0592,-0.174924 0.007,-0.0095 0.014,-0.02066 0.0201,-0.03345 0.21351,-0.491045 0.76997,-1.32602 2.22134,-2.051286 0.15266,-0.07216 0.41254,-0.183664 0.71072,-0.264753 0.37517,-0.09465 0.85363,-0.174602 1.4673,-0.111814 l 0.0339,0.0065 c 0.25354,0.02878 0.53638,0.09551 0.78785,0.234015 0,0 0.3656,0.195296 0.45673,0.501254 0.0313,-0.0044 0.0572,-0.0056 0.0846,-0.0045 0.0724,-3.15e-4 0.19161,0.0052 0.32518,0.03668 0.0254,0.0067 0.0559,0.01628 0.0874,0.02407 0.28574,0.08892 0.49622,0.302372 0.49622,0.302372 l -0.002,-5.26e-4 c 0.0351,0.03351 0.0713,0.06953 0.10265,0.10807 0.23557,0.281835 0.27154,0.630194 0.19713,1.020884 m 24.51173,6.988501 c -0.002,-0.21524 -0.0379,-0.3979 -0.0644,-0.49856 -0.0433,-0.13206 -0.0932,-0.2939 -0.22681,-0.31917 l 0.001,0.003 c -0.0462,-0.014 -0.0948,0.016 -0.12808,0.0382 -0.1293,0.12713 -0.25662,0.25496 -0.37585,0.38348 -0.0135,0.0146 -0.0271,0.0288 -0.0379,0.0421 -0.0168,0.0177 -0.031,0.0339 -0.0477,0.0514 -0.57948,0.65692 -1.09683,1.36736 -1.5484,2.09645 -0.18456,0.3162 -0.3672,0.63307 -0.54586,0.94494 -0.04,0.0711 -0.0756,0.14373 -0.11331,0.21561 0.78976,-0.003 1.50523,-0.38556 2.11737,-0.87381 0.62766,-0.55724 0.95838,-1.2689 0.96799,-2.08388 l 0.002,6.5e-4 z m 0.95634,0.92818 c -0.35111,1.66743 -1.88759,3.20477 -3.49996,3.76981 0,0 -0.62836,0.22967 -1.39978,0.0949 -0.33646,0.81382 -0.6007,1.57839 -0.79842,2.22584 -0.37137,1.27991 -0.68775,2.58533 -0.86712,3.94273 -0.58825,0.0778 -1.1803,-0.51088 -1.43398,-1.052 -0.0506,-0.11111 -0.0744,-0.2321 -0.0867,-0.3554 -0.051,-0.40886 0.0231,-0.87193 0.0714,-1.11442 0.16277,-1.0656 0.44035,-2.07633 0.73813,-3.07791 0.20378,-0.61559 0.44902,-1.20398 0.71288,-1.754 -0.0385,-0.0539 -0.0883,-0.13072 -0.13345,-0.22715 -0.11697,-0.22566 -0.21356,-0.50372 -0.25526,-0.7563 -0.24766,-1.89508 0.63978,-3.46076 1.75472,-4.85581 0.0781,-0.0898 0.15403,-0.1738 0.22414,-0.24716 0.19938,-0.18776 0.39279,-0.46261 0.68705,-0.44091 0.17696,1.62814 -1.40377,2.67606 -1.58144,4.24236 -0.0189,0.2251 -0.0181,0.59522 0.1363,0.7744 0.55492,-0.90991 1.11382,-1.64202 1.51453,-2.12738 0.0129,-0.0126 0.0248,-0.0276 0.0354,-0.0407 0.67655,-0.79528 1.41513,-1.48182 2.26021,-1.9676 0.11751,-0.0632 0.34446,-0.17124 0.5146,-0.17151 0.22213,0.003 0.42856,0.0877 0.60292,0.22181 0.0339,0.031 0.0891,0.08 0.1391,0.13771 0.62816,0.78414 0.91416,1.75734 0.66501,2.77797 m -8.92252,-1.89347 c 0.35267,-0.0239 1.33346,0.0222 1.79628,-0.36072 0.0508,-0.56683 -0.4636,-1.07967 -0.97285,-1.30802 -1.56919,-0.10221 -3.05594,0.23026 -4.54131,0.41229 -0.1413,0.021 -0.41266,0.0497 -0.41224,0.25604 0.12694,0.66699 0.79433,0.79526 1.30873,0.92337 l -0.0279,0.0753 -0.40568,1.24457 -0.10089,0.003 -0.19891,0.0158 c -0.0407,0.007 -0.0884,0.016 -0.13304,0.028 -0.17031,0.0555 -0.37643,0.14099 -0.31386,0.35195 0.48912,0.9759 -0.48595,1.6396 -0.3803,2.61801 0.0683,0.63382 0.40047,1.29148 0.96623,1.61392 0.0846,0.0379 0.20673,0.0838 0.37068,0.10134 1.49326,0.13103 2.71499,-0.65507 3.84091,-1.5383 0.13018,-0.28199 -0.074,-0.64216 -0.25753,-0.87188 -1.07548,-0.23203 -2.10214,0.25634 -3.1792,0.334 l -8.5e-4,-0.002 -0.0866,0.0103 c 0.11287,-0.27528 0.31405,-0.87264 0.53895,-1.55739 0.13796,-0.0177 0.41052,-0.0313 0.63249,-0.0157 0.21826,0.008 0.45097,0.0295 0.58557,0.0275 0.51865,-6e-5 1.04372,0.0425 1.4239,-0.23744 0.0623,-0.0505 0.0779,-0.11964 0.0809,-0.1589 0.0139,-0.18008 0.0674,-0.52915 -0.0696,-0.73415 -0.64445,-0.23077 -1.43556,-0.12582 -2.13003,-0.12748 l -0.0984,0.002 0.33078,-1.05385 1.43537,-0.0507 z m -20.54118,-0.83612 c -0.10694,-0.35819 -0.25774,-0.71254 -0.65495,-0.77433 -0.23118,0.0535 -0.36255,0.29035 -0.41249,0.46425 -0.28062,1.66648 -0.32932,3.41158 -0.30532,5.17988 0.0306,0.60793 -0.0751,1.49146 0.66684,1.64356 0.36109,0.10447 0.71862,-5.6e-4 1.00103,-0.23167 0.0965,-1.99839 -0.0656,-3.83392 -0.19045,-5.75211 -0.0298,-0.2378 -0.0774,-0.43081 -0.10466,-0.52958 m 33.6533,1.55716 c 1.8e-4,0.45705 0.37502,0.82138 0.82574,0.82105 0.45262,3.3e-4 0.81998,-0.36486 0.81974,-0.82193 -8.3e-4,-0.45515 -0.368,-0.8232 -0.82062,-0.82353 -0.45073,3.2e-4 -0.82386,0.36989 -0.82486,0.82441 m 52.33776,-1.22907 c -0.49885,0.18125 -0.99419,0.24256 -1.43932,0.25122 l -7.6e-4,-0.22345 c 9e-5,-0.90969 0.0227,-3.08048 0.0584,-3.89702 2.22171,0.0595 2.84998,1.07527 2.85118,1.79209 1.9e-4,1.26901 -0.90478,1.86571 -1.46943,2.07719 m -3.62147,-3.816026 c 0.0421,0.605546 0.0562,2.829516 0.0562,3.305626 l 5.9e-4,0.85892 c 3.3e-4,1.35408 -0.0105,3.78403 -0.0567,4.48426 -0.47862,0.0926 -0.9864,0.13474 -1.47763,0.17198 l -0.13529,0.72446 c 0.90949,-0.0786 1.85982,-0.0793 2.77331,-0.0779 0.88431,-2.5e-4 1.79458,0.004 2.6792,0.0764 l -0.13764,-0.72173 c -0.4832,-0.0407 -0.979,-0.088 -1.45467,-0.16861 -0.0403,-0.78771 -0.0646,-2.7198 -0.066,-3.57048 l 4e-4,-0.16565 c 0.26486,-0.01 0.66392,-0.0388 1.05349,-0.071 0.89652,1.08165 4.00639,4.60898 5.02539,5.07648 l 1.21342,-0.16408 c -1.277,-1.35018 -3.18182,-3.986 -4.17317,-5.66819 1.04273,-0.64438 2.04204,-1.79276 2.04083,-2.74755 9.7e-4,-0.88175 -0.53509,-1.478659 -1.34147,-1.799856 -1.00534,-0.396857 -2.86075,-0.409569 -4.18688,-0.410138 l -3.41303,0.01663 0.0986,0.699621 c 0.49968,0.04222 1.01023,0.07761 1.50125,0.150822 m -9.16293,0.658471 c 0.31685,0.94567 0.8716,2.52045 1.16589,3.39662 l -2.37553,-0.0451 c 0.23444,-0.6793 0.80729,-2.227 1.2096,-3.35159 m 2.76566,8.00712 c -0.43469,0.0824 -0.87323,0.12101 -1.31556,0.15828 l -0.17352,0.72389 c 0.87889,-0.0702 1.77919,-0.0797 2.6546,-0.0788 0.84178,-1.9e-4 1.87266,-0.0429 2.71826,0.0985 l -0.10573,-0.73399 c -0.42645,-0.0572 -0.85806,-0.11176 -1.28609,-0.19493 -0.63961,-1.25787 -1.47775,-3.52648 -1.86165,-4.58478 -0.48494,-1.33579 -1.16618,-3.27982 -1.4163,-4.087476 0.32538,-0.07374 0.66171,-0.11178 0.99358,-0.149249 l 0.099,-0.711581 c -0.91755,0.0652 -1.85916,0.07738 -2.786,0.0777 -0.72052,-9.7e-5 -1.45596,-0.02452 -2.17646,-0.0735 l 0.028,0.70693 c 0.34855,0.04282 0.69532,0.07856 1.03724,0.146529 -0.49475,1.341077 -2.81587,7.591677 -3.36681,8.679387 -0.41763,0.0884 -0.83483,0.14502 -1.25944,0.18632 l -0.0985,0.72239 c 0.62162,-0.0577 1.25164,-0.0785 1.87696,-0.0797 0.83543,-2.7e-4 1.68074,0.0199 2.51738,0.0711 l -0.13583,-0.71472 c -0.38795,-0.0395 -0.77728,-0.0751 -1.15767,-0.16083 0.17143,-1.0477 0.74408,-3.09497 0.90385,-3.6026 0.63004,-0.0697 2.35533,-0.15328 2.97504,-0.16278 0.52851,1.21068 0.90977,2.51461 1.33556,3.76391 m -12.88804,-1.52934 c 0.9033,1.04999 1.92263,2.15739 3.04007,3.0014 l 1.13936,-0.22602 c -1.60473,-2.09983 -3.13103,-4.27226 -4.69336,-6.40835 0.29877,-0.36357 0.96682,-1.14056 1.61655,-1.87716 0.44853,-0.5006 0.89475,-1.019 1.38216,-1.484796 l 0.11761,-0.112085 c 0.33815,-0.07992 0.67103,-0.144667 1.00293,-0.231013 l 0.0683,-0.690412 c -0.56689,0.04703 -1.1304,0.07822 -1.69793,0.07826 -0.74211,8.85e-4 -1.48397,-0.01727 -2.22269,-0.0811 l 0.13905,0.711587 c 0.20334,0.03255 0.41179,0.06263 0.6195,0.100957 l 0.24884,0.0484 c -0.41654,0.726422 -1.379,2.104432 -1.85552,2.752572 -0.45224,-0.5996 -1.48065,-2.12039 -1.87164,-2.743303 0.34244,-0.0678 0.69155,-0.112017 1.03802,-0.148652 l 0.20241,-0.709581 c -0.88168,0.04155 -1.76764,0.07099 -2.65385,0.07058 -0.76561,0.0012 -1.62809,0.03031 -2.40272,-0.101281 l 0.10459,0.725094 c 0.32609,0.06459 0.66643,0.106587 0.98628,0.207427 0.32234,0.343936 0.91482,1.090146 1.55393,1.909976 0.62098,0.79865 1.28109,1.66193 1.77231,2.28998 -0.63748,0.81739 -3.05707,4.02394 -3.6592,4.42853 -0.29037,0.11357 -0.63295,0.14518 -0.94654,0.19114 l -0.23877,0.71605 c 0.61643,-0.0489 1.21546,-0.0784 1.83187,-0.0784 0.8056,-4e-5 2.01103,0.0541 2.2345,0.0533 l 0.23803,9e-5 -0.0987,-0.69327 c -0.34994,-0.0388 -0.6971,-0.0918 -1.04408,-0.15741 0.55704,-1.06859 1.78967,-3.00293 2.28689,-3.68 0.36681,0.43595 1.00725,1.25199 1.76165,2.13748 m -10.16476,1.52115 c -0.0418,-0.57571 -0.0551,-2.62509 -0.055,-4.29784 l -4.1e-4,-0.87161 c -3.5e-4,-1.54326 0.0105,-2.9721 0.0494,-3.462295 0.48586,-0.06461 0.97577,-0.146947 1.46459,-0.19565 l 0.17418,-0.732169 c -0.8043,0.09401 -1.64353,0.09295 -2.44656,0.09175 -0.99543,0.0019 -2.07931,0.01985 -3.07964,-0.0862 l 0.17185,0.727261 c 0.48624,0.05029 0.97239,0.106939 1.45639,0.181962 0.0436,0.729351 0.058,2.976821 0.0593,3.406611 l -8.8e-4,0.82652 c 6.8e-4,1.27981 -0.0114,3.60944 -0.0595,4.40676 -0.48034,0.0793 -0.98155,0.15132 -1.46946,0.17909 l -0.13529,0.71808 c 0.81073,-0.0514 1.63182,-0.0715 2.452,-0.0707 0.99732,-10e-4 2.05317,-0.0119 3.05433,0.0795 l -0.17317,-0.72347 c -0.48687,-0.0485 -0.97957,-0.0924 -1.46216,-0.17759 m -10.10946,-0.005 c 0.58934,0.0777 1.18224,0.12688 1.76805,0.18422 l 0.16947,0.7158 c -0.97875,-0.0581 -1.98159,-0.0715 -2.96177,-0.0707 -0.93764,8.2e-4 -1.88873,0.01 -2.82598,0.0765 l 0.13775,-0.71297 c 0.49032,-0.0652 0.98417,-0.11001 1.47656,-0.18724 0.0445,-0.86022 0.0505,-3.5448 0.0509,-4.76047 l 5.4e-4,-0.56309 c -8.4e-4,-0.41264 -0.009,-2.62829 -0.0558,-3.331013 -0.48866,-0.104359 -1.00131,-0.127637 -1.49909,-0.1692 l -0.0973,-0.697064 3.49743,-0.01487 c 1.53881,2.34e-4 2.8766,0.126016 3.60838,0.423362 1.35353,0.562825 1.5123,1.510755 1.51247,1.925295 0.002,2.45551 -2.41124,3.5793 -4.51067,3.87058 l 0.0928,-0.7669 c 1.27514,-0.31689 2.1968,-1.02257 2.19557,-2.59376 3.7e-4,-0.78844 -0.38741,-1.41448 -1.02563,-1.73025 -0.37781,-0.184619 -0.97716,-0.270228 -1.53878,-0.287173 -0.041,0.642523 -0.0484,2.342473 -0.0487,3.411503 l 9.3e-4,0.59548 c 1e-5,1.09253 0.009,3.91189 0.053,4.68188"
       style="fill:#000000;fill-opacity:1;fill-rule:nonzero;stroke:none;stroke-width:1.60584"
       id="path4204"
       inkscape:connector-curvature="0" />
  </g>
</svg>
